# xmcd
#
# Track frame offsets:
#	150
#	14930
#	27807
#	44537
#	64279
#	78839
#	98890
#	112481
#	131749
#	149499
#	162343
#	179550
#	200658
#	222409
#	240662
#
# Disc length: 3435 seconds
# Revision: 0
# Processed by: cddbd v1.5.2PL0 Copyright (c) Steve Scherf et al.
# Submitted via: dBpowerAMP V12.0
#
DISCID=ee0d690f
DTITLE=WestWend - Linger For A While
DYEAR=2014
DGENRE=Country
TTITLE0=Dance Partner for Life
TTITLE1=Bad Breaks
TTITLE2=Look Who's Talking Now
TTITLE3=Two Soldiers
TTITLE4=Fourteen Karat Mind
TTITLE5=Ghost Train
TTITLE6=I'll Remember You Love in My Prayers
TTITLE7=Summerfly
TTITLE8=Somebody's Praying Back Home
TTITLE9=Smoky Mountain Living
TTITLE10=Linger for a While
TTITLE11=Freeborn Man
TTITLE12=Wind in the Willows
TTITLE13=Beulah Land
TTITLE14=Wake Me Up
EXTD=
EXTT0=
EXTT1=
EXTT2=
EXTT3=
EXTT4=
EXTT5=
EXTT6=
EXTT7=
EXTT8=
EXTT9=
EXTT10=
EXTT11=
EXTT12=
EXTT13=
EXTT14=
PLAYORDER=
